<svg width="24" height="24" viewBox="0 0 24 24" fill="none" xmlns="http://www.w3.org/2000/svg">
<rect width="24" height="24" fill="#808080"/>
<path d="M9.86667 18C9.86667 17.45 10.0333 16.9833 10.3833 16.5833C10.7333 16.2 11.1667 16 11.6667 16C12.1667 16 12.5833 16.2 12.9333 16.5833C13.2833 16.9833 13.4667 17.45 13.4667 18H16C16.3667 18 16.6667 17.8833 16.9333 17.6167C17.2 17.35 17.3333 17.0333 17.3333 16.6667V14C17.8 14 18.1833 13.85 18.5167 13.5167C18.8333 13.2 19 12.8 19 12.3333C19 11.8667 18.8333 11.4833 18.5167 11.15C18.1833 10.8333 17.8 10.6667 17.3333 10.6667V8C17.3333 7.63333 17.2 7.33333 16.9333 7.06667C16.6667 6.8 16.3667 6.66667 16 6.66667H13.3333C13.3333 6.2 13.1667 5.81667 12.85 5.48333C12.5167 5.16667 12.1333 5 11.6667 5C11.2 5 10.8 5.16667 10.4833 5.48333C10.15 5.81667 10 6.2 10 6.66667H7.33333C6.96667 6.66667 6.65 6.8 6.38333 7.06667C6.11667 7.33333 6 7.63333 6 8V10.5333C6.53333 10.5333 7 10.7167 7.4 11.05C7.8 11.3833 8 11.8167 8 12.3333C8 12.8667 7.8 13.3 7.4 13.6333C7 13.9667 6.53333 14.1333 6 14.1333V16.6667C6 17.0333 6.11667 17.35 6.38333 17.6167C6.65 17.8833 6.96667 18 7.33333 18H9.86667Z" fill="white"/>
</svg>
