<svg width="24" height="24" viewBox="0 0 24 24" fill="none" xmlns="http://www.w3.org/2000/svg">
<rect width="24" height="24" fill="url(#paint0_linear_308_71)"/>
<path d="M18.2819 5.31284L12.6082 9.50352L13.6632 7.03382L18.2819 5.31284Z" fill="#E17726"/>
<path d="M5.19482 5.31284L10.818 9.54263L9.81349 7.03381L5.19482 5.31284Z" fill="#E27625"/>
<path d="M16.2391 15.0296L14.7295 17.3317L17.962 18.2201L18.888 15.0799L16.2391 15.0296Z" fill="#E27625"/>
<path d="M4.59424 15.0799L5.5146 18.2201L8.7415 17.3317L7.23748 15.0296L4.59424 15.0799Z" fill="#E27625"/>
<path d="M8.5676 11.1407L7.66968 12.4929L10.8685 12.6381L10.7619 9.20179L8.5676 11.1407Z" fill="#E27625"/>
<path d="M14.909 11.1407L12.6811 9.16267L12.6082 12.6382L15.807 12.4929L14.909 11.1407Z" fill="#E27625"/>
<path d="M8.74146 17.3317L10.6776 16.3986L9.01084 15.1023L8.74146 17.3317Z" fill="#E27625"/>
<path d="M12.7991 16.3986L14.7296 17.3317L14.4658 15.1023L12.7991 16.3986Z" fill="#E27625"/>
<path d="M14.7294 17.3317L12.7988 16.3986L12.956 17.6502L12.9391 18.181L14.7294 17.3317Z" fill="#D5BFB2"/>
<path d="M8.74146 17.3317L10.5373 18.181L10.5261 17.6502L10.6776 16.3986L8.74146 17.3317Z" fill="#D5BFB2"/>
<path d="M10.5709 14.2753L8.96582 13.806L10.0995 13.2863L10.5709 14.2753Z" fill="#233447"/>
<path d="M12.9055 14.2753L13.3769 13.2863L14.5162 13.806L12.9055 14.2753Z" fill="#233447"/>
<path d="M8.74133 17.3317L9.02191 15.0296L7.2373 15.0799L8.74133 17.3317Z" fill="#CC6228"/>
<path d="M14.4543 15.0296L14.7293 17.3317L16.239 15.0799L14.4543 15.0296Z" fill="#CC6228"/>
<path d="M15.807 12.4929L12.6082 12.6382L12.9056 14.2753L13.377 13.2863L14.5162 13.806L15.807 12.4929Z" fill="#CC6228"/>
<path d="M8.96604 13.806L10.0997 13.2863L10.5711 14.2753L10.8685 12.6382L7.66968 12.4929L8.96604 13.806Z" fill="#CC6228"/>
<path d="M7.66968 12.4929L9.01095 15.1023L8.96606 13.806L7.66968 12.4929Z" fill="#E27525"/>
<path d="M14.5161 13.806L14.4656 15.1023L15.8068 12.4929L14.5161 13.806Z" fill="#E27525"/>
<path d="M10.8683 12.6381L10.5708 14.2753L10.9468 16.2086L11.031 13.6607L10.8683 12.6381Z" fill="#E27525"/>
<path d="M12.6081 12.6381L12.4509 13.6551L12.5295 16.2086L12.9055 14.2753L12.6081 12.6381Z" fill="#E27525"/>
<path d="M12.9053 14.2753L12.5293 16.2086L12.7987 16.3986L14.4655 15.1023L14.516 13.806L12.9053 14.2753Z" fill="#F5841F"/>
<path d="M8.96582 13.806L9.01075 15.1023L10.6775 16.3986L10.9469 16.2086L10.5709 14.2753L8.96582 13.806Z" fill="#F5841F"/>
<path d="M12.9392 18.181L12.9561 17.6502L12.8101 17.5273H10.6664L10.5261 17.6502L10.5373 18.181L8.74146 17.3317L9.37004 17.8458L10.6439 18.723H12.827L14.1065 17.8458L14.7295 17.3317L12.9392 18.181Z" fill="#C0AC9D"/>
<path d="M12.7988 16.3986L12.5294 16.2086H10.9468L10.6774 16.3986L10.5259 17.6502L10.6662 17.5273H12.81L12.9559 17.6502L12.7988 16.3986Z" fill="#161616"/>
<path d="M18.523 9.7773L19.0001 7.46406L18.2817 5.31284L12.7988 9.36385L14.9089 11.1407L17.8889 12.0068L18.5455 11.2413L18.2592 11.0345L18.7138 10.6211L18.3659 10.3528L18.8205 10.0064L18.523 9.7773Z" fill="#763E1A"/>
<path d="M4.47632 7.46406L4.95895 9.7773L4.65029 10.0064L5.11047 10.3528L4.76253 10.6211L5.2171 11.0345L4.93089 11.2413L5.58749 12.0068L8.56747 11.1407L10.6775 9.36385L5.19465 5.31284L4.47632 7.46406Z" fill="#763E1A"/>
<path d="M17.8889 12.0068L14.9089 11.1407L15.8068 12.4929L14.4656 15.1023L16.239 15.0799H18.8878L17.8889 12.0068Z" fill="#F5841F"/>
<path d="M8.56751 11.1407L5.58756 12.0068L4.59424 15.0799H7.23748L9.01086 15.1023L7.6696 12.4929L8.56751 11.1407Z" fill="#F5841F"/>
<path d="M12.608 12.6381L12.7988 9.36385L13.663 7.03382H9.81323L10.6775 9.36385L10.8683 12.6381L10.9412 13.6662L10.9468 16.2086H12.5294L12.535 13.6662L12.608 12.6381Z" fill="#F5841F"/>
<defs>
<linearGradient id="paint0_linear_308_71" x1="12" y1="0" x2="12" y2="24" gradientUnits="userSpaceOnUse">
<stop stop-color="white"/>
<stop offset="1" stop-color="#FBC99D"/>
</linearGradient>
</defs>
</svg>
