<svg width="128" height="128" viewBox="0 0 128 128" fill="none" xmlns="http://www.w3.org/2000/svg">
<rect width="128" height="128" fill="#0D67FE"/>
<path d="M101 27.9453V55.8612L19 88.8468L101 27.9453Z" fill="#00C9FF"/>
<path d="M85.6277 26.7344V74.8911C85.6277 81.6208 82.9278 88.0749 78.1218 92.8335C73.3159 97.5923 66.7977 100.266 60.0011 100.266C53.2046 100.266 46.6863 97.5923 41.8804 92.8335C37.0744 88.0749 34.3745 81.6208 34.3745 74.8911V54.5991L49.7478 46.2219V74.8911C49.604 76.1423 49.7286 77.4095 50.1136 78.6097C50.4988 79.81 51.1355 80.916 51.9824 81.8555C52.8294 82.795 53.8671 83.5467 55.0277 84.0614C56.1886 84.5761 57.446 84.8424 58.7179 84.8424C59.9896 84.8424 61.2472 84.5761 62.4078 84.0614C63.5685 83.5467 64.6064 82.795 65.4532 81.8555C66.3001 80.916 66.937 79.81 67.322 78.6097C67.7072 77.4095 67.8318 76.1423 67.6878 74.8911V36.4526L85.6277 26.7344Z" fill="white"/>
</svg>
