<svg width="24" height="24" viewBox="0 0 24 24" fill="none" xmlns="http://www.w3.org/2000/svg">
<rect width="24" height="24" fill="#3B99FC"/>
<path d="M6.98031 8.83501C9.75242 6.12167 14.2476 6.12167 17.0197 8.83501L17.3535 9.16144C17.3864 9.19333 17.4125 9.2315 17.4304 9.2737C17.4483 9.31589 17.4575 9.36124 17.4575 9.40706C17.4575 9.45289 17.4483 9.49824 17.4304 9.54043C17.4125 9.58263 17.3864 9.6208 17.3535 9.65269L16.2121 10.7697C16.1785 10.8023 16.1334 10.8206 16.0865 10.8206C16.0397 10.8206 15.9946 10.8023 15.961 10.7697L15.5019 10.3202C13.5681 8.42778 10.4324 8.42778 8.49813 10.3202L8.00642 10.8014C7.97276 10.834 7.92773 10.8522 7.88086 10.8522C7.83398 10.8522 7.78895 10.834 7.75529 10.8014L6.61394 9.68437C6.58103 9.65248 6.55487 9.61431 6.53701 9.57211C6.51914 9.52992 6.50993 9.48456 6.50993 9.43874C6.50993 9.39292 6.51914 9.34757 6.53701 9.30537C6.55487 9.26318 6.58103 9.22501 6.61394 9.19312L6.98031 8.83501ZM19.3804 11.1448L20.396 12.1392C20.4289 12.1711 20.4551 12.2093 20.4729 12.2515C20.4908 12.2937 20.5 12.339 20.5 12.3849C20.5 12.4307 20.4908 12.476 20.4729 12.5182C20.4551 12.5604 20.4289 12.5986 20.396 12.6305L15.8159 17.1132C15.7486 17.1786 15.6585 17.2151 15.5648 17.2151C15.471 17.2151 15.3809 17.1786 15.3136 17.1132L12.0631 13.9316C12.0463 13.9152 12.0237 13.906 12.0002 13.906C11.9767 13.906 11.9541 13.9152 11.9373 13.9316L8.68683 17.1132C8.61956 17.1786 8.52947 17.2151 8.43569 17.2151C8.34191 17.2151 8.25182 17.1786 8.18456 17.1132L3.60401 12.6305C3.5711 12.5986 3.54494 12.5604 3.52707 12.5182C3.50921 12.476 3.5 12.4307 3.5 12.3849C3.5 12.339 3.50921 12.2937 3.52707 12.2515C3.54494 12.2093 3.5711 12.1711 3.60401 12.1392L4.62002 11.1448C4.68726 11.0796 4.77725 11.0431 4.87092 11.0431C4.96459 11.0431 5.05459 11.0796 5.12183 11.1448L8.37233 14.3264C8.38915 14.3429 8.41172 14.3521 8.43523 14.3521C8.45874 14.3521 8.48132 14.3429 8.49813 14.3264L11.7486 11.1448C11.8159 11.0795 11.906 11.0429 11.9998 11.0429C12.0936 11.0429 12.1836 11.0795 12.2509 11.1448L15.5019 14.3264C15.5187 14.3429 15.5413 14.3521 15.5648 14.3521C15.5883 14.3521 15.6109 14.3429 15.6277 14.3264L18.8782 11.1448C18.9454 11.0795 19.0355 11.0429 19.1293 11.0429C19.2231 11.0429 19.3132 11.0795 19.3804 11.1448Z" fill="white"/>
</svg>
