<svg width="128" height="128" viewBox="0 0 128 128" fill="none" xmlns="http://www.w3.org/2000/svg">
<g clip-path="url(#clip0_506_1846)">
<path d="M128 0H0V128H128V0Z" fill="url(#paint0_linear_506_1846)"/>
<path d="M27.7336 21.2861C24.2261 21.2861 21.3823 24.1299 21.3823 27.6374V38.3686L28.9836 39.6186L30.2336 70.0324C45.5511 70.0324 57.9673 82.4486 57.9673 97.7661L88.3811 99.0161L89.6311 106.617H100.362C103.87 106.617 106.714 103.774 106.714 100.266C106.714 56.6461 71.3536 21.2861 27.7336 21.2861V21.2861Z" fill="url(#paint1_radial_506_1846)"/>
<path d="M27.7336 38.3682H21.3823V55.4507L28.9836 56.7007L30.2336 70.0319C45.5511 70.0319 57.9673 82.4482 57.9673 97.7657L71.2986 99.0157L72.5486 106.617H89.6311V100.266C89.6311 66.0807 61.9186 38.3682 27.7336 38.3682V38.3682Z" fill="url(#paint2_radial_506_1846)"/>
<path d="M27.7336 55.4502V55.4589H21.3823V66.1902C21.3823 69.6977 24.2261 72.5414 27.7336 72.5414V72.5327C43.0511 72.5327 55.4673 84.9489 55.4673 100.266H55.4586C55.4586 103.774 58.3023 106.618 61.8098 106.618H72.5411V100.266H72.5498C72.5498 75.5152 52.4848 55.4502 27.7336 55.4502V55.4502Z" fill="url(#paint3_radial_506_1846)"/>
</g>
<defs>
<linearGradient id="paint0_linear_506_1846" x1="64" y1="128" x2="64" y2="0" gradientUnits="userSpaceOnUse">
<stop stop-color="#001E5A"/>
<stop offset="1" stop-color="#174299"/>
</linearGradient>
<radialGradient id="paint1_radial_506_1846" cx="0" cy="0" r="1" gradientUnits="userSpaceOnUse" gradientTransform="translate(28.2648 99.9511) scale(79.8)">
<stop offset="0.767895" stop-color="#EF431B"/>
<stop offset="0.984209" stop-color="#8753C8"/>
</radialGradient>
<radialGradient id="paint2_radial_506_1846" cx="0" cy="0" r="1" gradientUnits="userSpaceOnUse" gradientTransform="translate(26.8798 100.306) scale(63.55)">
<stop offset="0.715254" stop-color="#FFF200"/>
<stop offset="0.99" stop-color="#FF9A00"/>
</radialGradient>
<radialGradient id="paint3_radial_506_1846" cx="0" cy="0" r="1" gradientUnits="userSpaceOnUse" gradientTransform="translate(27.9361 99.7389) scale(45.7413 45.7413)">
<stop offset="0.59986" stop-color="#00B1E5"/>
<stop offset="0.97824" stop-color="#00D943"/>
</radialGradient>
<clipPath id="clip0_506_1846">
<rect width="128" height="128" fill="white"/>
</clipPath>
</defs>
</svg>
