<?xml version="1.0" encoding="UTF-8" standalone="no"?>
<!-- Generator: Adobe Illustrator 26.0.3, SVG Export Plug-In . SVG Version: 6.00 Build 0)  -->

<svg
   version="1.0"
   id="katman_1"
   x="0px"
   y="0px"
   viewBox="0 0 42.9 33.1"
   style="enable-background:new 0 0 42.9 33.1;"
   xml:space="preserve"
   sodipodi:docname="arbitrumone.svg"
   inkscape:version="1.2.1 (9c6d41e410, 2022-07-14)"
   xmlns:inkscape="http://www.inkscape.org/namespaces/inkscape"
   xmlns:sodipodi="http://sodipodi.sourceforge.net/DTD/sodipodi-0.dtd"
   xmlns="http://www.w3.org/2000/svg"
   xmlns:svg="http://www.w3.org/2000/svg"><defs
   id="defs42" /><sodipodi:namedview
   id="namedview40"
   pagecolor="#ffffff"
   bordercolor="#000000"
   borderopacity="0.25"
   inkscape:showpageshadow="2"
   inkscape:pageopacity="0.0"
   inkscape:pagecheckerboard="0"
   inkscape:deskcolor="#d1d1d1"
   showgrid="false"
   inkscape:zoom="17.880616"
   inkscape:cx="9.3676862"
   inkscape:cy="20.133535"
   inkscape:window-width="1920"
   inkscape:window-height="1017"
   inkscape:window-x="-8"
   inkscape:window-y="-8"
   inkscape:window-maximized="1"
   inkscape:current-layer="katman_1" />
<style
   type="text/css"
   id="style23">
	.st0{fill:#2C374B;}
	.st1{fill-rule:evenodd;clip-rule:evenodd;fill:#FFFFFF;}
	.st2{fill:#24A2EE;}
	.st3{fill-rule:evenodd;clip-rule:evenodd;fill:#98BCDC;}
	.st4{fill:#FFFFFF;}
</style>
<path
   class="st0"
   d="m 21.277457,32.805001 c 9.075042,0 16.277457,-7.346483 16.277457,-16.2775 C 37.554914,7.4524336 30.208451,0.25 21.277457,0.25 12.202416,0.25 5,7.5964823 5,16.527501 c 0,8.931017 7.346463,16.2775 16.277457,16.2775 z"
   id="path25"
   style="stroke-width:1.44049" />
<path
   class="st1"
   d="M 30.208452,10.621505 C 30.064403,10.477456 23.006038,6.3000443 22.141747,6.0119469 21.85365,5.8678982 21.13341,5.7238495 20.701264,5.8678982 20.26912,6.0119469 12.778609,10.333408 12.490512,10.621505 c -0.144048,0.144048 -0.288096,0.432146 -0.432145,0.576195 -0.144048,0.288097 -0.144048,0.432146 -0.144048,5.473849 v 5.185752 l 1.008338,0.576196 c 0.576193,0.288097 1.008338,0.576194 1.008338,0.576194 0.144048,0 6.914318,-10.803651 6.914318,-10.947699 0,-0.144049 -1.584531,-0.144049 -2.016676,0 -0.576193,0.144048 -1.008338,0.432146 -1.296435,0.720243 -0.144048,0.144049 -1.008338,1.584536 -2.160724,3.169071 -1.008338,1.584535 -1.872628,3.025022 -1.872628,3.025022 0,0 0,-1.440487 0,-3.457168 v -3.601217 l 0.144049,-0.144048 c 0.288096,-0.288098 7.634559,-4.4655099 7.922655,-4.4655099 0.144049,0 0.288096,0 2.016677,1.0083407 0.576193,0.2880974 2.160723,1.1523894 3.457159,2.0166822 1.296434,0.720243 2.44882,1.440487 2.592869,1.584535 l 0.144048,0.144049 v 7.490531 L 26.1751,13.934625 C 26.031051,13.646528 25.887002,13.35843 25.742954,13.214381 v 0 0 c 0,0 0,0 0,0 0,0 -0.144048,0.288098 -1.008337,1.728584 -0.144049,0.144049 -0.288098,0.432146 -0.288098,0.576195 l -0.144048,0.288098 v 0 0 l 0.144048,0.144048 0.144049,0.144049 c 0,0 0,0.144049 0.144049,0.144049 l 0.288097,0.432145 c 0,0 0,0.144049 0.144048,0.144049 0.144048,0.144049 0.288096,0.432146 0.288096,0.576194 0,0 0,0 0,0.144049 l 3.025015,4.897656 -0.288097,0.144048 c -0.144049,0.144049 -0.288097,0.144049 -0.432145,0.144049 l -3.745255,-5.761947 -0.144049,-0.144049 -0.288096,0.576194 v 0 l -1.440483,2.304779 v 0 l 2.880966,4.609559 c -0.432145,0.288097 -2.880966,2.016681 -3.025015,2.016681 -0.144048,0 -3.457159,-2.16073 -3.31311,-2.30478 0,0 1.008338,-1.728583 2.160724,-3.745264 v 0 c 1.008338,-1.728585 2.304773,-3.889315 3.169063,-5.329802 1.008338,-1.728584 1.440482,-2.592876 1.440482,-2.592876 0,0 -0.720241,0 -1.584531,0 h -1.440484 l -3.31311,5.47385 c -1.152387,2.016682 -2.304773,3.889314 -2.880966,4.897655 v 0 c -1.008338,0.144049 -1.296435,0.432146 -1.296435,0.432146 l -0.144048,0.288097 2.592869,1.440487 c 1.440483,0.864292 2.736918,1.584536 3.025014,1.728584 0.432145,0.288098 1.152387,0.288098 1.440483,0.288098 0.288097,-0.144049 7.778608,-4.465509 8.210753,-4.753607 0.144048,-0.144048 0.288096,-0.288098 0.432145,-0.576195 l 0.144048,-0.432146 v -4.753606 -4.753606 l -0.144048,-0.288097 c 0,-0.288098 -0.288097,-0.576196 -0.288096,-0.720244 z m -0.86429,8.786969 z"
   id="path27"
   style="stroke-width:1.44049" />
<path
   class="st2"
   d="m 29.48821,19.408474 -4.321449,-6.626239 -1.58453,2.592876 4.177399,6.770288 1.872628,-0.864292 z"
   id="path29"
   style="stroke-width:1.44049" />
<path
   class="st2"
   d="m 27.471534,23.009691 -4.321449,-6.626239 -1.872628,2.880973 3.45716,5.47385 2.160723,-0.864292 z"
   id="path31"
   style="stroke-width:1.44049" />
<path
   class="st3"
   d="m 13.354802,11.917943 7.922655,-4.609558 7.922656,4.609558 v 9.219115 l -7.922656,4.609558 -5.905979,-3.313119 -0.720241,1.296437 6.482173,3.745266 c 0.144048,0.144049 0.288096,0.144049 0.432144,0 l 9.075042,-5.185752 c 0.144049,-0.144049 0.288098,-0.288097 0.288098,-0.432147 V 11.485797 c 0,-0.144048 -0.144049,-0.288097 -0.288098,-0.432146 L 21.565554,5.8678982 c -0.144048,-0.1440487 -0.288097,-0.1440487 -0.432144,0 l -9.075043,5.0417038 c -0.144048,0.144049 -0.288096,0.288098 -0.288096,0.432147 v 10.371504 c 0,0.144048 0.144048,0.288098 0.288096,0.432146 l 1.872628,1.008341 0.86429,-1.296439 -1.296435,-0.720243 v -9.219115 z"
   id="path33"
   style="stroke-width:1.44049" />
<path
   class="st4"
   d="m 24.734617,11.917943 h -3.025014 l -7.058366,11.523894 2.448821,1.440487 z"
   id="path35"
   style="stroke-width:1.44049" />
<path
   class="st4"
   d="m 17.100058,13.070332 c 0.720241,-1.152389 2.736916,-1.152389 3.601206,-1.00834 L 13.786947,23.15374 c -0.288097,-0.144049 -0.86429,-0.432146 -1.296435,-0.720243 -0.576193,-0.288098 -0.720241,-0.288098 -0.720241,-0.720244 v -0.576195 c 1.584531,-2.304779 4.609544,-6.914336 5.329787,-8.066726 z"
   id="path37"
   style="stroke-width:1.44049" />
</svg>
