<?xml version="1.0" encoding="UTF-8" standalone="no"?>
<!-- Generator: Adobe Illustrator 26.3.1, SVG Export Plug-In . SVG Version: 6.00 Build 0)  -->

<svg
   version="1.1"
   id="Layer_1"
   x="0px"
   y="0px"
   viewBox="0 0 800 800"
   style="enable-background:new 0 0 800 800;"
   xml:space="preserve"
   sodipodi:docname="trustevm.svg"
   inkscape:version="1.2.1 (9c6d41e410, 2022-07-14)"
   xmlns:inkscape="http://www.inkscape.org/namespaces/inkscape"
   xmlns:sodipodi="http://sodipodi.sourceforge.net/DTD/sodipodi-0.dtd"
   xmlns="http://www.w3.org/2000/svg"
   xmlns:svg="http://www.w3.org/2000/svg"><defs
   id="defs90" /><sodipodi:namedview
   id="namedview88"
   pagecolor="#ffffff"
   bordercolor="#000000"
   borderopacity="0.25"
   inkscape:showpageshadow="2"
   inkscape:pageopacity="0.0"
   inkscape:pagecheckerboard="0"
   inkscape:deskcolor="#d1d1d1"
   showgrid="false"
   inkscape:zoom="0.523125"
   inkscape:cx="74.551971"
   inkscape:cy="600.23895"
   inkscape:window-width="1920"
   inkscape:window-height="1017"
   inkscape:window-x="-8"
   inkscape:window-y="-8"
   inkscape:window-maximized="1"
   inkscape:current-layer="g85" />
<style
   type="text/css"
   id="style47">
	.st0{fill:#0C8DC6;}
	.st1{fill:#52B25C;}
	.st2{fill:#3F3F3F;}
	.st3{fill:#1E1E1E;}
	.st4{fill:#FFFFFF;}
</style>
<g
   id="g85">
	<g
   id="g65"
   transform="matrix(4.0254666,0,0,4.0375135,-1209.5816,-1043.5392)">
		<g
   id="g53">
			<path
   class="st0"
   d="m 435,335.7 c -8.6,-8.6 -20,-13.3 -32.1,-13.3 -12.1,0 -23.5,4.7 -32.1,13.3 0,0 -0.1,0 -0.1,0.1 l -6.3,6.4 c -1,1 -1,2.6 0,3.6 l 12.6,12.6 c 1,1 2.6,1 3.6,0 l 6.3,-6.4 c 0,0 0.1,-0.1 0.1,-0.1 v 0 c 4.3,-4.3 9.9,-6.6 16,-6.6 6,0 11.7,2.3 16,6.6 l 47.7,50.7 16.2,-16.1 z"
   id="path49" />
			<path
   class="st0"
   d="m 352.9,385.8 -18.9,19 c -0.6,0.6 -1.5,0.6 -2.1,0 l -14.1,-14.1 c -0.6,-0.6 -0.6,-1.5 0,-2.1 l 18.9,-18.9 c 0.6,-0.6 1.5,-0.6 2.1,0 l 14.1,14.1 c 0.6,0.5 0.6,1.5 0,2 z"
   id="path51" />
		</g>
		<g
   id="g59">
			<path
   class="st1"
   d="m 484.1,333 -21.2,20.6 c -0.6,0.6 -1.5,0.6 -2.1,0 L 447,339.3 c -0.6,-0.6 -0.6,-1.5 0,-2.1 l 21.2,-20.6 c 0.6,-0.6 1.5,-0.6 2.1,0 l 13.8,14.3 c 0.6,0.6 0.6,1.5 0,2.1 z"
   id="path55" />
			<path
   class="st1"
   d="m 364.3,386.5 c 8.4,8.8 19.7,13.7 31.8,14 12.1,0.3 23.6,-4.2 32.4,-12.6 0,0 0.1,0 0.1,-0.1 l 6.7,-6.4 c 1,-1 1,-2.6 0.1,-3.6 L 423,365 c -1,-1 -2.6,-1 -3.6,-0.1 l -6.7,6.4 c 0,0 -0.1,0.1 -0.1,0.1 v 0 c -4.4,4.2 -10.1,6.4 -16.1,6.3 -6,-0.1 -11.6,-2.6 -15.8,-7 l -47.5,-48.4 -16.5,15.8 z"
   id="path57" />
		</g>
		<g
   id="g63">
			<path
   class="st2"
   d="m 399.7,456.2 c -13.5,0 -27,-5.1 -37.3,-15.4 v 0 L 317,395.4 c -20.6,-20.6 -20.6,-54 0,-74.6 l 45.5,-45.5 c 20.6,-20.6 54,-20.6 74.6,0 l 45.5,45.5 c 20.6,20.6 20.6,54 0,74.6 L 437,440.8 c -10.3,10.3 -23.8,15.4 -37.3,15.4 z m -28,-24.7 c 15.5,15.4 40.6,15.4 56,0 L 473.2,386 c 15.5,-15.5 15.5,-40.6 0,-56 l -45.5,-45.5 c -7.5,-7.5 -17.4,-11.6 -28,-11.6 -10.6,0 -20.5,4.1 -28,11.6 L 326.2,330 c -7.5,7.5 -11.6,17.4 -11.6,28 0,10.6 4.1,20.5 11.6,28 z"
   id="path61" />
		</g>
	</g>
	
</g>
</svg>
